<!-- Generated by IcoMoon.io -->
<svg version="1.1" xmlns="http://www.w3.org/2000/svg" width="784" height="1024" viewBox="0 0 784 1024">
<title></title>
<g id="icomoon-ignore">
</g>
<path fill="#000" d="M452.611 20.734c-43.018 12.045-77.862 41.727-95.93 80.015-8.174 18.066-9.034 28.392-9.895 110.125l-0.86 90.338-55.493 27.962c-30.543 15.487-67.968 36.996-83.024 47.749-49.901 36.136-107.115 103.673-135.938 160.887-5.162 9.464-14.196 36.566-21.079 60.224-11.183 38.715-12.045 49.47-12.045 107.545 0 60.655 0.86 66.677 12.905 101.094 7.313 20.219 20.219 48.18 29.253 61.515 65.388 98.511 217.241 151.422 391.891 137.657 46.028-3.871 62.376-7.313 92.058-18.497 97.651-37.856 157.018-106.255 177.235-203.475 12.475-61.085 9.895-146.26-6.883-212.080-12.475-49.040-51.192-117.868-98.941-176.373l-11.183-13.336 22.37-7.313c28.392-9.464 49.47-22.8 68.828-44.309 23.23-25.38 31.406-50.762 28.822-88.186-3.871-54.202-30.113-94.638-71.41-109.264-18.066-6.453-22.37-10.326-30.543-27.962-12.475-27.962-42.588-56.783-75.281-72.701-32.262-15.917-81.734-21.079-114.859-11.615zM373.025 437.577c3.871 10.326 12.475 34.845 18.927 54.632l11.615 35.705 38.715 10.326c42.158 10.753 88.186 29.253 88.186 35.705 0 6.883-41.297 40.866-80.015 65.388l-36.136 23.23 1.721 25.81c6.022 74.851 6.883 107.976 3.012 113.998-5.592 8.174-16.347 2.151-82.164-48.18-27.532-20.649-52.053-37.856-54.202-37.856-2.581 0-29.253 11.615-58.935 25.81-30.113 14.196-57.645 25.81-61.515 25.81-5.592 0-6.453-3.012-3.871-18.497 3.444-19.358 29.253-96.79 38.715-115.292 5.592-10.326 4.732-12.475-17.208-37.856-29.683-33.553-47.749-64.097-42.158-69.689 6.453-6.453 67.538-16.347 99.372-16.777h27.101l30.974-29.253c46.459-44.309 64.958-60.655 68.398-61.085 1.291 0 6.022 8.174 9.464 18.066z"></path>
</svg>
